<?xml version="1.0" standalone="no"?>
<!DOCTYPE svg PUBLIC "-//W3C//DTD SVG 20010904//EN"
 "http://www.w3.org/TR/2001/REC-SVG-20010904/DTD/svg10.dtd">
<svg version="1.0" xmlns="http://www.w3.org/2000/svg"
 width="260.000000pt" height="260.000000pt" viewBox="0 0 260.000000 260.000000"
 preserveAspectRatio="xMidYMid meet">
<metadata>
Created by potrace 1.11, written by Peter Selinger 2001-2013
</metadata>
<g transform="translate(0.000000,260.000000) scale(0.100000,-0.100000)"
fill="#000000" stroke="none">
<path d="M1026 2481 c-12 -18 24 -387 40 -412 6 -10 38 -12 47 -2 4 3 2 12 -4
20 -9 9 -8 17 0 27 9 10 10 44 5 116 -7 100 -7 102 13 96 17 -6 21 -1 25 24 4
30 -13 43 -27 20 -15 -24 -24 -6 -27 53 -3 62 -3 62 -35 65 -17 2 -34 -1 -37
-7z"/>
<path d="M1304 2453 c-8 -31 4 -46 33 -40 l25 5 -6 -117 c-4 -64 -9 -144 -12
-178 -6 -56 -4 -62 12 -62 11 1 29 -2 42 -6 20 -7 22 -4 23 31 0 22 8 100 18
174 l17 135 47 -3 c46 -4 47 -3 47 26 0 26 -4 31 -36 36 -22 5 -41 3 -50 -5
-10 -8 -17 -9 -28 0 -7 6 -21 9 -30 5 -9 -3 -16 -2 -16 4 0 5 -18 12 -40 14
-35 3 -41 1 -46 -19z"/>
<path d="M1568 2444 c-5 -4 -8 -21 -8 -38 0 -21 3 -27 11 -19 6 6 9 23 7 38
-2 15 -6 23 -10 19z"/>
<path d="M831 2421 c-13 -8 -13 -17 -1 -66 12 -49 12 -58 -1 -66 -18 -11 1
-45 24 -41 11 2 20 -19 35 -75 12 -43 26 -96 31 -118 16 -61 24 -69 50 -55 17
9 26 9 37 -1 20 -17 31 -2 15 22 -11 19 -10 20 8 14 24 -7 26 -2 10 26 -7 13
-16 18 -29 14 -19 -6 -26 8 -65 128 -19 61 -19 64 5 72 12 4 20 15 20 29 0 30
-9 37 -31 26 -21 -12 -33 4 -43 63 -6 30 -11 37 -29 37 -12 0 -28 -4 -36 -9z"/>
<path d="M1164 2333 c-7 -55 0 -197 12 -240 5 -17 14 -23 35 -23 15 0 30 3 32
8 7 11 -13 240 -23 267 -5 13 -18 29 -29 34 -18 10 -20 7 -27 -46z"/>
<path d="M1608 2323 c-57 -68 -84 -177 -57 -231 34 -69 62 -78 115 -37 30 23
32 28 21 45 -15 25 -29 25 -52 0 -13 -14 -22 -17 -30 -10 -10 8 -10 18 1 48
13 37 15 39 47 27 13 -6 17 -2 18 16 l1 24 7 -24 c9 -35 38 -35 56 -1 24 45
19 112 -8 138 -29 28 -97 30 -119 5z m73 -65 c-4 -20 -14 -34 -25 -36 -15 -3
-17 0 -11 20 16 52 46 66 36 16z"/>
<path d="M732 2277 c-6 -7 -14 -25 -18 -41 -6 -26 -8 -27 -19 -13 -15 21 -25
21 -52 2 l-22 -16 45 -74 c25 -41 50 -75 54 -75 5 0 7 -7 4 -15 -3 -8 1 -24 9
-35 l15 -21 21 27 c17 21 19 30 9 48 -6 11 -14 23 -17 26 -4 3 -13 25 -20 49
-12 40 -11 46 4 58 10 7 23 14 28 16 7 2 7 14 -2 35 -16 39 -25 46 -39 29z"/>
<path d="M1857 2222 c-23 -25 -21 -37 6 -49 17 -8 30 -7 47 2 32 17 42 10 30
-21 -14 -36 -4 -46 30 -29 25 13 52 60 39 68 -82 50 -126 58 -152 29z"/>
<path d="M513 2149 c-78 -69 -89 -94 -59 -134 14 -19 15 -19 35 -1 11 10 21
34 23 53 l3 35 27 -21 c35 -28 38 -27 38 13 0 25 -7 39 -22 50 -26 18 -29 19
-45 5z"/>
<path d="M1800 2117 c-31 -16 -70 -73 -70 -103 0 -29 25 -54 55 -54 13 0 28
-6 32 -13 4 -7 21 -20 36 -30 l28 -18 20 43 c11 24 38 72 60 107 22 35 38 65
35 68 -2 2 -17 -2 -32 -10 -25 -13 -32 -12 -68 4 -48 22 -63 23 -96 6z m80
-42 c0 -10 -45 -75 -52 -75 -15 0 -8 27 13 54 18 23 39 34 39 21z"/>
<path d="M592 2088 c4 -25 0 -36 -19 -51 -29 -23 -53 -68 -53 -99 0 -34 36
-87 67 -99 34 -13 68 1 78 30 3 12 13 21 22 21 8 0 26 9 39 19 l24 19 -32 39
c-18 22 -51 65 -73 96 -22 31 -44 57 -49 57 -4 0 -6 -14 -4 -32z m26 -123 c12
-19 22 -39 22 -45 0 -17 -26 0 -43 29 -33 57 -15 71 21 16z"/>
<path d="M2050 2009 c-47 -49 -86 -96 -88 -103 -1 -7 10 -18 25 -25 26 -12 29
-10 115 79 48 50 88 95 88 99 0 11 -34 41 -46 41 -5 0 -47 -41 -94 -91z"/>
<path d="M215 2004 l-59 -67 45 -38 c24 -21 49 -39 56 -39 6 0 19 -10 27 -21
17 -24 52 -19 42 6 -3 9 0 15 9 15 21 0 18 28 -3 34 -10 4 -31 20 -47 36 l-29
30 31 33 c29 30 30 33 16 55 -9 12 -19 22 -22 22 -4 0 -34 -30 -66 -66z"/>
<path d="M2189 2024 c-7 -9 -14 -23 -15 -33 -1 -9 -36 -47 -78 -86 -83 -78
-102 -116 -66 -135 19 -10 25 -8 51 22 16 18 34 45 41 61 7 15 19 25 26 22 7
-2 33 14 57 36 37 34 46 38 51 25 7 -17 -61 -103 -83 -105 -11 -1 -93 -93 -93
-105 0 -3 5 -6 11 -6 7 0 18 -8 26 -17 12 -17 18 -13 68 42 30 33 53 66 50 73
-3 9 1 11 13 8 19 -6 73 43 85 75 9 27 -20 59 -54 59 -26 0 -29 3 -24 19 4 13
-1 27 -14 40 -25 25 -34 26 -52 5z"/>
<path d="M778 1975 c-12 -27 -3 -49 11 -26 5 7 14 10 20 7 12 -8 14 4 5 28 -9
23 -23 20 -36 -9z"/>
<path d="M366 1876 c-3 -14 -3 -31 0 -40 4 -10 -2 -17 -21 -22 -14 -3 -25 -11
-23 -18 2 -6 36 -42 76 -81 l74 -70 59 65 c32 36 59 68 59 71 0 3 -9 14 -21
25 -21 19 -21 18 -55 -18 l-34 -37 -44 37 c-51 42 -54 52 -26 77 23 21 18 35
-15 35 -16 0 -25 -7 -29 -24z"/>
<path d="M1935 1881 c-10 -17 15 -53 33 -49 9 2 17 9 17 17 0 19 -41 45 -50
32z"/>
</g>
</svg>
